<?xml version="1.0" encoding="utf-8"?>
<svg viewBox="100 26.251 159.083 442.09" xmlns="http://www.w3.org/2000/svg">
  <path stroke="#000000" d="M 187.394 80.298 C 187.647 94.44 189.088 97.976 194.139 108.582 C 200.753 122.474 227.474 133.836 242.12 157.574 C 256.767 181.312 256.349 195.093 256.349 209.234 C 256.349 223.377 253.226 233.692 253.226 233.692 C 253.226 233.692 253.824 231.881 250.854 224.933 C 251.865 215.841 252.791 198.807 240.605 175.251 C 235.078 164.565 209.943 146.609 187.214 131.457 C 187.467 145.599 188.908 149.135 193.959 159.741 C 200.573 173.633 227.294 184.995 241.94 208.733 C 256.587 232.471 256.169 246.252 256.169 260.393 C 256.169 274.536 253.046 284.851 253.046 284.851 C 253.046 284.851 253.644 283.04 250.674 276.092 C 251.685 267 252.611 249.966 240.425 226.41 C 234.898 215.724 209.942 197.768 187.213 182.616 C 187.718 199.789 189.412 205.702 197.493 216.813 C 208.549 232.015 227.293 241.057 242.444 261.26 C 257.596 281.462 259.204 313.589 252.689 334.25 C 252.689 334.25 251.5 331.164 249.811 327.608 C 254.781 267.59 210.298 254.55 187.212 235.229 C 187.212 260.483 196.483 273.886 227.797 300.655 C 259.111 327.425 258.974 355.408 259.081 369.045 C 259.26 391.789 248.388 410.838 242.949 417.833 C 244.969 410.762 263.181 364.384 244.464 337.526 C 234.976 323.91 211.129 316.312 187.391 297.12 C 187.391 297.12 187.896 387.149 187.391 430.586 C 175.269 462.406 145.975 468.341 130.823 468.341 C 115.671 468.341 100.382 459.32 100.013 447.128 C 99.556 432.015 111.124 418.338 129.813 409.247 C 148.501 400.155 172.744 399.65 181.331 406.722 L 181.301 26.311 L 187.392 26.251 L 187.571 39.539 C 187.636 44.457 188.193 48.503 194.464 55.546 C 203.945 66.195 222.749 81.81 235.88 97.467 C 249.013 113.124 254.569 128.322 255.696 142.5 C 257.032 159.321 252.548 180.3 252.548 180.3 C 252.548 180.3 252.874 178.673 250.349 173.116 C 250.798 137.296 245.478 132.822 233.861 116.66 C 222.244 100.498 210.628 94.439 187.394 80.298"/>
</svg>