<?xml version="1.0" encoding="utf-8"?>
<svg viewBox="386.003 202.319 54.461 95.361" xmlns="http://www.w3.org/2000/svg">
  <path id="path2991" d="M 110.9375 51.9375 L 110.9375 126 C 109.0629 123.45712 101.17892 121.80239 94.375 126.15625 C 87.571079 130.51012 83.486486 137.79063 85.84375 142.09375 C 88.534497 147.00564 97.479358 149.63478 104.59375 144.53125 C 109.73852 140.84063 112.21225 136.09844 113 134.6875 L 113 90.03125 C 132.07989 101.68901 142.43114 105.02254 132.8125 131.34375 C 151.18862 103.26621 128.27477 99.576267 113 72.03125 L 113 69.9375 C 138.86683 83.055749 133.67706 95.328918 136 102.0625 C 142.43454 75.101798 119.34006 72.375773 113 53.25 L 113 52.09375 L 110.9375 51.9375 z " style="opacity:1;fill:#000000;stroke:none" transform="matrix(1, 0, 0, 1, 300.83075, 150.381973)"/>
</svg>