<?xml version="1.0" encoding="utf-8"?>
<svg viewBox="100 137.791 53.982 162.209" xmlns="http://www.w3.org/2000/svg">
  <path style="fill:#000000;fill-opacity:1;stroke:none" d="M 126.982 278.848 L 126.985 137.791 L 128.985 137.83 C 129.91 141.217 130.535 144.793 132.514 147.792 C 134.505 151.29 144.611 160.41 148.239 165.844 C 150.048 168.49 150.772 170.707 151.385 172.661 C 152.023 174.948 152.082 177.625 152.019 180.092 C 151.973 182.997 151.148 186.403 150.57 188.823 L 149.949 186.923 C 149.915 183.731 150.264 180.433 149.438 177.305 C 148.782 174.615 147.163 171.792 145.018 169.215 C 140.762 163.98 134.938 158.742 129.491 155.857 C 129.435 158.879 130.581 162.197 131.61 163.822 C 135.477 169.968 143.522 175.532 147.041 181.2 C 148.36 182.984 149.614 185.655 150.5 187.844 C 151.768 191.143 151.977 194.18 151.998 197.357 C 151.931 200.161 151.297 203.501 150.947 206.572 L 149.977 203.096 C 149.629 200.076 150.277 197.354 148.988 194.308 C 147.931 191.893 146.554 189.104 144.868 187.267 C 140.316 182.319 134.631 178.378 129.513 173.934 C 129.695 176.251 130.493 178.849 131.985 181.275 C 136.72 188.978 143.937 195.757 149.979 203.098 C 151.284 207.061 152.01 211.345 151.984 215.806 C 151.948 218.217 151.328 221.56 150.984 224.443 L 149.983 221.303 C 150.011 218.963 149.712 216.608 149.358 214.285 C 148.827 211.414 147.598 208.179 146.067 206.218 C 142.91 201.674 137.898 194.86 129.405 191.777 C 129.662 194.225 130.75 196.524 131.535 198.877 C 134.884 205.536 144.583 213.391 149.982 221.304 C 151.643 225.087 152.033 229.731 151.984 233.259 C 151.98 234.172 152.055 237.521 151.112 240.074 L 149.989 237.793 C 149.669 235.244 149.4 232.731 148.838 230.263 C 147.106 222.156 137.349 215.977 129.444 209.277 C 129.546 212.095 129.75 215.666 131.46 217.754 C 137.583 224.478 145.84 229.922 149.98 237.79 C 152.25 240.662 152.935 246.28 152.936 250.927 C 152.903 252.237 152.671 253.9 152.238 255.346 L 150.676 252.222 C 150.815 249.501 149.922 247.067 149.063 244.345 C 145.695 235.422 136.375 231.533 129.413 225.755 C 129.558 228.265 130.1 231.107 131.385 233.783 C 132.187 235.698 144.412 246.01 150.675 252.225 C 154.13 255.766 153.979 261.031 153.979 263.671 C 154.027 267.579 153.521 271.228 152.424 275.642 C 152.295 276.248 150.246 281.966 147.474 283.848 C 149.105 280.605 150.072 278.046 150.971 273.782 C 151.704 270.46 151.811 268.382 151.834 266.592 C 151.834 263.52 150.662 260.249 148.838 258.053 C 143.877 252.219 136.404 246.862 128.981 242.826 L 128.981 286.308 C 128.995 287.694 127.087 292.042 124.457 294.532 C 123.012 295.979 116.952 299.972 110.562 300 C 105.403 300.025 100.197 298.198 100 292.959 C 100.053 284.452 111.641 277.399 120.075 277.303 C 123.089 277.131 125.75 278.238 126.982 278.848 Z" id="path9273"/>
</svg>