<?xml version="1.0" encoding="utf-8"?>
<svg viewBox="325.32 113.033 53.759 108.861" xmlns="http://www.w3.org/2000/svg">
  <path id="path2991" d="m 111.875,37.90625 0.1875,87.5625 c -1.8746,-2.54288 -9.75858,-4.19761 -16.5625,0.15625 -6.80392,4.35387 -10.88851,11.63438 -8.53125,15.9375 2.69075,4.91189 11.63561,7.54103 18.75,2.4375 5.14477,-3.69062 7.6185,-8.43281 8.40625,-9.84375 l 0,-44.65625 c 18.89239,12.47027 28.18114,14.86629 18.5625,41.1875 9.44248,-12.19554 8.76194,-20.06513 3.8125,-28.21875 0.73897,-5.485189 0.77685,-9.688378 0.28125,-13.0625 C 142.1906,58.113393 123.1135,60.801533 114.125,41.125 l 0,-3.0625 -2.25,-0.15625 z m 2.25,18.21875 c 18.97575,10.239083 20.72077,20.273317 21.21875,28 C 131.66686,75.578128 122.8384,72.973164 114.125,58.78125 l 0,-2.65625 z m 0,15.375 c 19.23222,16.367779 19.15773,12.504158 21.46875,29.53125 C 130.34302,93.101948 121.41396,84.644201 114.125,71.5 z" style="fill:#000000;stroke:none" transform="matrix(1, 0, 0, 1, 239.022629, 75.127235)"/>
</svg>