<?xml version="1.0" encoding="utf-8"?>
<svg viewBox="100 9.071 159.083 390.929" xmlns="http://www.w3.org/2000/svg">
  <path style="fill:#000000;fill-opacity:1;stroke:#000000;stroke-width:1px;stroke-linecap:butt;stroke-linejoin:miter;stroke-opacity:1" d="M 181.33 9.13 L 181.33 338.381 C 172.744 331.31 148.5 331.815 129.813 340.906 C 111.125 349.997 99.556 363.674 100.013 378.787 C 100.382 390.98 115.67 400 130.823 400 C 145.975 400 175.269 394.065 187.391 362.246 C 187.896 318.809 187.391 228.779 187.391 228.779 C 211.13 247.972 234.976 255.569 244.465 269.185 C 263.182 296.043 244.97 342.421 242.95 349.492 C 248.388 342.497 259.26 323.448 259.081 300.704 C 258.974 287.067 259.112 259.084 227.797 232.315 C 196.483 205.546 187.213 192.143 187.213 166.889 C 210.298 186.21 254.781 199.25 249.811 259.268 C 251.5 262.823 252.689 265.91 252.689 265.91 C 259.204 245.248 257.597 213.122 242.445 192.919 C 227.292 172.716 208.548 163.674 197.493 148.472 C 189.412 137.36 187.718 131.447 187.213 114.275 C 209.941 129.427 234.897 147.383 240.424 158.068 C 252.61 181.624 251.684 198.658 250.674 207.75 C 253.643 214.698 253.046 216.509 253.046 216.509 C 253.046 216.509 256.168 206.193 256.168 192.051 C 256.168 177.909 256.587 164.129 241.939 140.391 C 227.292 116.652 200.572 105.29 193.957 91.398 C 188.906 80.792 187.644 77.256 187.391 63.114 C 210.625 77.256 222.241 83.317 233.858 99.48 C 245.475 115.642 250.796 120.116 250.347 155.936 C 252.873 161.492 252.546 163.119 252.546 163.119 C 252.546 163.119 257.03 142.141 255.694 125.32 C 254.567 111.141 249.011 95.944 235.879 80.287 C 222.747 64.629 203.944 49.015 194.462 38.365 C 188.192 31.322 187.636 27.277 187.57 22.359 L 187.391 9.071 Z" id="path3872"/>
</svg>