<?xml version="1.0" encoding="utf-8"?>
<svg viewBox="321.733 205 183 90" xmlns="http://www.w3.org/2000/svg">
  <path id="path2818" d="m -211,56 3,0 0,30 -3,0 0,-30 z m 8,0 3,0 0,12.417297 2.57505,-3.060272 c 6.43413,-7.646532 25.13123,-8.008376 32.94651,-0.637613 L -161,68 l 0,-12 3,0 0,30 -3,0 0,-11.889604 -2.57505,3.06027 c -2.88837,3.43264 -10.27853,6.09318 -16.92495,6.09318 -6.64642,0 -14.03658,-2.66054 -16.92495,-6.09318 L -200,74.110396 -200,86 l -3,0 0,-30 z m 29.60224,22.748146 c 3.05854,-4.66792 0.13433,-13.916407 -5.16332,-16.330174 -7.77978,-3.544708 -12.54851,2.495846 -9.30827,11.790804 2.2412,6.42911 11.35935,9.28925 14.47159,4.53937 z M -153,56 l 3,0 0,30 -3,0 0,-30 z" style="fill:#000000" transform="matrix(3, 0, 0, 3, 954.733459, 37)"/>
</svg>