<?xml version="1.0" encoding="utf-8"?>
<svg viewBox="160.101 12.15 143.861 287.721" xmlns="http://www.w3.org/2000/svg">
  <path id="path2836" d="m -91.489057,118.53722 -1,0 0,-29.500003 0,-29.5 -22.000003,0 -22,0 0,5.5 0,5.5 -1,0 -1,0 0,-24 0,-24 1,0 1,0 0,5 0,5 22,0 22.000003,0 0,-5 0,-5 1,0 1,0 0,48 0,48.000003 -1,0 z m -23.000003,-66.000003 22.000003,0 0,-6.5 0,-6.5 -22.000003,0 -22,0 0,6.5 0,6.5 22,0 z" style="fill:#000000" transform="matrix(2.997099, 0, 0, 2.997099, 575.166748, -55.395973)"/>
</svg>