<?xml version="1.0" encoding="utf-8"?>
<svg viewBox="34.281 80 233 186" xmlns="http://www.w3.org/2000/svg">
  <g transform="matrix(1, 0, 0, 1, 0, 19)">
    <title>stk</title>
    <path d="M 200 97.825 C 203.564 90.044 221.363 95.076 220 97.825 L 220 140 L 200 140 L 200 97.825 Z" style="stroke: rgb(0, 0, 0); fill: rgb(130, 130, 130);">
      <title>stkb</title>
    </path>
    <path d="M 160 91.435 C 163.564 83.654 181.363 88.686 180 91.435 L 180 133.61 L 160 133.61 L 160 91.435 Z" style="stroke: rgb(0, 0, 0); fill: rgb(130, 130, 130);">
      <title>stkm</title>
    </path>
    <path d="M 120 84.153 C 123.564 76.372 141.363 81.404 140 84.153 L 140 126.328 L 120 126.328 L 120 84.153 Z" style="stroke: rgb(0, 0, 0); fill: rgb(130, 130, 130);">
      <title>stkf</title>
    </path>
  </g>
  <g transform="matrix(1, 0, 0, 1, 0, 19)">
    <title>top</title>
    <path d="M 120 120 L 240 140 L 240 160 L 120 149.917 L 120 120 Z" style="stroke: rgb(0, 0, 0); fill: rgb(194, 137, 137);"/>
    <path d="M 67.953 125.777 L 119.813 120.093 L 119.813 149.811 L 68.079 146.706 L 67.953 125.777 Z" style="stroke: rgb(0, 0, 0); fill: rgb(194, 137, 137);"/>
  </g>
  <g transform="matrix(1, 0, 0, 1, 0, 19)">
    <title>hullg</title>
    <path style="stroke: rgb(0, 0, 0); fill: rgb(220, 220, 220);" d="M 40 120 L 109.241 125.823 L 261.32 165.191 L 240 220 L 80 220 L 40 120 Z M 109.152 125.753 L 80.072 220.106 L 109.152 125.753 Z">
      <title>hull</title>
    </path>
    <path d="M 112.924 174.044 L 14.945 174.17 L 6.275 166.855 L 112.924 174.044 Z" style="stroke: rgb(0, 0, 0); fill: rgb(220, 220, 220);" transform="matrix(0.440073, 0.897962, -0.897962, 0.440073, 186.485116, 41.956467)"/>
  </g>
  <g style="" transform="matrix(0.997224, 0, 0, 1, 0.095112, 19)">
    <title>sea</title>
    <rect x="34.257" y="219.132" width="233.695" height="27.858" style="fill: rgb(198, 208, 231);"/>
    <path style="stroke: rgb(0, 0, 0); fill: rgb(198, 208, 231);" d="M 34.283 219.693 C 34.283 219.693 50.886 205.778 50.341 205.734 C 49.795 205.69 39.958 215.365 51.279 220.027" transform="matrix(1, -0.000246, 0.000246, 1, -0.052367, 0.010531)"/>
    <path style="stroke: rgb(0, 0, 0); fill: rgb(198, 208, 231);" d="M 50.891 219.689 C 50.891 219.689 67.494 205.774 66.949 205.73 C 66.403 205.685 56.566 215.361 67.888 220.023" transform="matrix(1, -0.000246, 0.000246, 1, -0.052366, 0.014616)"/>
    <path style="stroke: rgb(0, 0, 0); fill: rgb(198, 208, 231);" d="M 67.471 219.684 C 67.471 219.684 84.074 205.769 83.529 205.725 C 82.983 205.681 73.146 215.356 84.467 220.018" transform="matrix(1, -0.000246, 0.000246, 1, -0.052364, 0.018695)"/>
    <path style="stroke: rgb(0, 0, 0); fill: rgb(198, 208, 231);" d="M 84.428 219.68 C 84.428 219.68 101.031 205.765 100.486 205.721 C 99.94 205.677 90.103 215.352 101.424 220.014" transform="matrix(1, -0.000246, 0.000246, 1, -0.052363, 0.022866)"/>
    <path style="stroke: rgb(0, 0, 0); fill: rgb(198, 208, 231);" d="M 100.878 219.676 C 100.878 219.676 117.481 205.761 116.936 205.717 C 116.39 205.673 106.553 215.348 117.874 220.01" transform="matrix(1, -0.000246, 0.000246, 1, -0.052361, 0.026913)"/>
    <path style="stroke: rgb(0, 0, 0); fill: rgb(198, 208, 231);" d="M 117.486 219.672 C 117.486 219.672 134.089 205.757 133.544 205.713 C 132.998 205.669 123.161 215.344 134.482 220.006" transform="matrix(1, -0.000246, 0.000246, 1, -0.05236, 0.030999)"/>
    <path style="stroke: rgb(0, 0, 0); fill: rgb(198, 208, 231);" d="M 134.066 219.668 C 134.066 219.668 150.669 205.753 150.124 205.709 C 149.578 205.665 139.741 215.34 151.062 220.002" transform="matrix(1, -0.000246, 0.000246, 1, -0.052358, 0.035077)"/>
    <path style="stroke: rgb(0, 0, 0); fill: rgb(198, 208, 231);" d="M 151.023 219.664 C 151.023 219.664 167.626 205.749 167.081 205.705 C 166.535 205.661 156.698 215.336 168.019 219.998" transform="matrix(1, -0.000246, 0.000246, 1, -0.052357, 0.039249)"/>
    <path style="stroke: rgb(0, 0, 0); fill: rgb(198, 208, 231);" d="M 167.696 219.66 C 167.696 219.66 184.299 205.745 183.754 205.701 C 183.208 205.657 173.371 215.332 184.692 219.994" transform="matrix(1, -0.000246, 0.000246, 1, -0.052355, 0.04335)"/>
    <path style="stroke: rgb(0, 0, 0); fill: rgb(198, 208, 231);" d="M 184.304 219.656 C 184.304 219.656 200.907 205.741 200.362 205.697 C 199.816 205.653 189.979 215.328 201.3 219.99" transform="matrix(1, -0.000246, 0.000246, 1, -0.052354, 0.047436)"/>
    <path style="stroke: rgb(0, 0, 0); fill: rgb(198, 208, 231);" d="M 200.884 219.652 C 200.884 219.652 217.487 205.737 216.942 205.693 C 216.396 205.649 206.559 215.324 217.88 219.986" transform="matrix(1, -0.000246, 0.000246, 1, -0.052352, 0.051514)"/>
    <path style="stroke: rgb(0, 0, 0); fill: rgb(198, 208, 231);" d="M 217.841 219.647 C 217.841 219.647 234.444 205.732 233.899 205.688 C 233.353 205.644 223.516 215.319 234.837 219.981" transform="matrix(1, -0.000246, 0.000246, 1, -0.05235, 0.055686)"/>
    <path style="stroke: rgb(0, 0, 0); fill: rgb(198, 208, 231);" d="M 234.291 219.643 C 234.291 219.643 250.894 205.728 250.349 205.684 C 249.803 205.64 239.966 215.315 251.287 219.977" transform="matrix(1, -0.000246, 0.000246, 1, -0.052349, 0.059733)"/>
    <path style="stroke: rgb(0, 0, 0); fill: rgb(198, 208, 231);" d="M 250.899 219.639 C 250.899 219.639 267.502 205.724 266.957 205.68 C 266.411 205.636 256.574 215.311 267.895 219.973" transform="matrix(1, -0.000246, 0.000246, 1, -0.052347, 0.063818)"/>
  </g>
</svg>